<svg width="790" height="480" xmlns="http://www.w3.org/2000/svg">

 <g>
  <title>Layer 1</title>
  <g>

   <g id="svg_2">
    <rect stroke-opacity="0.95686" stroke-miterlimit="4" stroke-linejoin="round" stroke-width="5.65752" stroke="#1f1e1c" fill-rule="nonzero" fill="none" id="svg_6" y="4" x="5" ry="101.36391" height="471.65118" width="779.66565"/>
    <path stroke-miterlimit="4" stroke-linejoin="round" stroke-width="30" fill-rule="nonzero" fill="#a40018" id="svg_5" d="m171.62027,105.57121c-53.40407,0 -96.85558,43.42204 -96.85558,96.8261l0,117.33463l28.28761,0l0,-72.72271l273.88882,0l0,-28.2876l-273.88882,0l0,-16.32432c0,-38.2221 30.34593,-68.5385 68.56797,-68.5385l205.32085,0l0,-28.2876l-205.32085,0zm242.47779,-63.58817l0,277.7489l28.28761,0l0,-114.68266c0,-39.6892 32.23791,-71.19047 71.92712,-71.19047l103.98641,0c39.68922,0 71.21993,31.50127 71.21993,71.19047l0,114.68266l28.2876,0l0,-114.68266c0,-54.87126 -44.63627,-99.47807 -99.50753,-99.47807l-103.98641,0c-28.26291,0 -53.79597,11.84591 -71.92712,30.8217l0,-94.40987l-28.28761,0z"/>
    <path stroke-width="0.94292px" stroke="#201f1d" fill="#201f1d" id="svg_4" d="m125.22992,403.69557c-0.00022,8.01248 -2.19607,14.41133 -6.58755,19.19659c-4.39157,4.78525 -10.22745,7.17788 -17.50766,7.17788c-6.045,0 -11.13106,-1.6943 -15.25818,-5.08289c-4.12714,-3.38859 -6.81002,-8.01316 -8.04863,-13.87369c-0.46456,-2.19803 -0.70668,-4.53372 -0.72637,-7.00707c0.00389,-7.78326 2.21557,-14.05601 6.63503,-18.81825c4.41945,-4.76215 10.24623,-7.14324 17.48039,-7.1433c6.548,0.00006 11.87185,1.90047 15.97156,5.70123c3.70195,3.43335 6.1578,8.0118 7.36753,13.73535c0.43556,2.06113 0.66018,4.09918 0.67388,6.11415l0,0zm-6.90352,0.47999c0.02268,-2.06108 -0.1594,-4.0069 -0.54625,-5.83747c-0.93889,-4.44217 -2.87894,-7.93382 -5.82011,-10.47497c-2.94126,-2.54105 -6.54073,-3.81159 -10.79846,-3.81164c-5.17444,0.00005 -9.33191,1.83163 -12.47238,5.49477c-3.14051,3.66321 -4.71348,8.51658 -4.71894,14.56014c-0.02273,2.06112 0.1595,4.00765 0.54669,5.83957c0.9288,4.39471 2.86389,7.86296 5.80528,10.40475c2.94134,2.5418 6.5416,3.8127 10.80078,3.8127c5.17299,0 9.33009,-1.83159 12.47133,-5.49478c3.14115,-3.66316 4.71849,-8.49418 4.73206,-14.49307l0,0zm50.25718,-12.2262c-0.01282,4.48835 -2.22204,7.9 -6.62764,10.23497c2.80599,1.14446 4.82518,2.35771 6.05756,3.63977c1.23233,1.28209 2.0663,2.95368 2.50196,5.01477c0.22234,1.05223 0.33989,2.15056 0.35264,3.29498c-0.03231,4.3961 -1.57391,7.93351 -4.62479,10.61225c-3.05094,2.67874 -7.09514,4.01811 -12.13259,4.01811l-21.22241,0l0.08505,-49.31354l21.70449,0c3.61775,0.00006 6.63823,0.85838 9.06149,2.57499c2.42318,1.7167 3.94933,4.06321 4.57842,7.03955c0.1934,0.91531 0.28201,1.8767 0.26582,2.88415l0,0zm-6.69768,0.4821c-0.00839,-0.68747 -0.07548,-1.32886 -0.20125,-1.92417c-0.7549,-3.57162 -4.08565,-5.35744 -9.99226,-5.35748l-12.08787,0l-0.01972,15.17952l12.0187,0c6.86939,0.00003 10.29686,-2.6326 10.2824,-7.89787l0,0zm2.35926,21.56615c-0.00699,-0.6875 -0.0734,-1.32888 -0.19917,-1.92417c-0.89017,-4.21162 -4.6777,-6.31744 -11.36265,-6.31746l-13.11911,0l0.01701,17.307l14.21744,0c3.34246,0 5.92273,-0.78985 7.74083,-2.36957c1.81802,-1.57971 2.7199,-3.81164 2.70565,-6.6958l0,0zm51.21786,-34.54694l-0.05537,5.90664l-29.26072,0l0.03483,15.11036l26.99281,0l-0.05746,5.90664l-26.99071,0l-0.02085,16.48326l29.74072,0l0.01169,5.90664l-36.40193,0l0.08715,-49.31354l35.91984,0zm48.91806,13.39161c0.01083,3.29779 -0.83299,6.02265 -2.53148,8.17454c-0.86624,1.09835 -2.31308,2.26585 -4.34055,3.5025c3.07245,1.32751 4.89413,3.3418 5.46505,6.04288c0.18394,0.87058 0.31998,1.94724 0.40808,3.22999l0.44465,8.92704c0.02983,1.00751 0.09808,1.76348 0.20474,2.26792c0.22235,1.05221 0.96091,1.94512 2.21574,2.67874l0.02462,1.09832l-8.17247,0c-0.22039,-0.82444 -0.38977,-1.62582 -0.50811,-2.40416c-0.37811,-2.65498 -0.58636,-5.69982 -0.62476,-9.13454c-0.01135,-1.78582 -0.11861,-3.15941 -0.32176,-4.12082c-0.25166,-1.19053 -0.79976,-2.26649 -1.64429,-3.2279c-1.32709,-1.51191 -3.61644,-2.2679 -6.86806,-2.26792l-16.13951,0l0.00661,21.15534l-6.66123,0l0.08506,-49.31354l22.80282,0c9.15827,0.00006 14.4341,3.29642 15.82751,9.88912c0.23238,1.09977 0.34149,2.26725 0.32734,3.50249l0,0zm-6.83602,0.48209c-0.00932,-0.91664 -0.09134,-1.74108 -0.24605,-2.47334c-0.80334,-3.80077 -3.67762,-5.70118 -8.62284,-5.70122l-16.6216,0l-0.02946,16.75993l15.45411,0c6.68494,0.00003 10.04022,-2.86176 10.06584,-8.58537l0,0zm62.19738,10.3712c-0.0137,-2.01497 -0.23833,-4.05302 -0.67389,-6.11415c-1.20973,-5.72355 -3.66557,-10.302 -7.36752,-13.73535c-4.09972,-3.80076 -9.42357,-5.70117 -15.97156,-5.70123c-7.23415,0.00006 -13.06094,2.38115 -17.48039,7.1433c-4.41946,4.76224 -6.63113,11.03499 -6.63502,18.81825c0.01968,2.47335 0.2618,4.80904 0.72637,7.00707c1.23861,5.86053 3.92149,10.4851 8.04863,13.87369c4.12712,3.38859 9.21317,5.08289 15.25817,5.08289c7.28022,0 13.11609,-2.39263 17.50767,-7.17788c4.39147,-4.78526 6.58732,-11.18411 6.58754,-19.19659l0,0zm-6.90352,0.47999c-0.01357,5.99889 -1.59091,10.82991 -4.73207,14.49307c-3.14122,3.66319 -7.29833,5.49478 -12.47133,5.49478c-4.25918,0 -7.85942,-1.2709 -10.80078,-3.8127c-2.94138,-2.54179 -4.87646,-6.01004 -5.80527,-10.40475c-0.38718,-1.83192 -0.56942,-3.77845 -0.54669,-5.83957c0.00545,-6.04356 1.57844,-10.89693 4.71894,-14.56014c3.14046,-3.66314 7.29794,-5.49472 12.47237,-5.49477c4.25774,0.00005 7.85721,1.27059 10.79846,3.81164c2.94119,2.54115 4.88123,6.0328 5.82013,10.47497c0.38683,1.83057 0.56891,3.77639 0.54624,5.83747l0,0zm-9.39349,-37.29484l-6.25039,0l-0.03075,7.00497l6.25039,0l0.03075,-7.00497zm-11.12579,0l-6.25039,0l-0.03074,7.00497l6.25039,0l0.03074,-7.00497zm71.2523,26.99281l-6.25039,0c-0.04476,-0.64136 -0.12515,-1.23663 -0.24119,-1.78583c-1.16127,-5.49438 -5.22133,-8.24159 -12.18013,-8.24163c-3.48086,0.00004 -6.19491,0.75532 -8.14215,2.26582c-1.94728,1.51059 -2.91478,3.59404 -2.90249,6.2504c-0.01115,0.59531 0.03644,1.14446 0.14277,1.64748c0.51299,2.42724 2.40351,4.00696 5.67159,4.73914l14.07592,3.2279c6.16055,1.41975 9.78276,4.69377 10.86669,9.82205c0.22262,1.05362 0.32702,2.19876 0.31314,3.43541c-0.01914,4.66999 -1.75632,8.3101 -5.21153,10.92037c-3.45528,2.61027 -8.29622,3.9154 -14.52283,3.9154c-6.82332,0 -11.95452,-1.855 -15.3936,-5.56498c-1.00073,-1.05222 -1.82038,-2.2197 -2.45899,-3.50249c-1.01976,-2.01498 -1.57246,-4.73913 -1.65809,-8.17246l6.2504,0c0.06623,0.9614 0.18647,1.85431 0.36074,2.67874c1.24835,5.90665 5.78722,8.85997 13.61665,8.85997c8.37994,0 12.57297,-2.9079 12.57912,-8.72373c0.01554,-1.87664 -0.514,-3.41024 -1.58863,-4.60081c-1.25313,-1.37358 -4.23934,-2.61024 -8.95867,-3.70998l-10.04095,-2.33499c-5.87558,-1.37359 -9.29238,-4.3269 -10.25043,-8.85996c-0.19344,-0.91524 -0.28692,-1.89969 -0.28043,-2.95333c-0.02561,-4.66994 1.55586,-8.34429 4.74441,-11.02307c3.18855,-2.67869 7.53003,-4.01805 13.02447,-4.01811c3.52552,0.00006 6.66824,0.57226 9.42819,1.71666c3.41333,1.41976 5.8419,3.59475 7.28569,6.52497c0.88183,1.78587 1.4554,4.28155 1.72072,7.48706l0,0zm45.57986,-14.42286l-0.05747,5.90664l-16.68867,0l-0.02968,43.4069l-6.66331,0l0.02967,-43.4069l-16.68866,0l0.05537,-5.90664l40.04275,0zm42.81163,0l-0.05537,5.90664l-29.26073,0l0.03485,15.11036l26.99279,0l-0.05745,5.90664l-26.99071,0l-0.02085,16.48326l29.74071,0l0.01169,5.90664l-36.40193,0l0.08716,-49.31354l35.91984,0zm48.91803,13.39161c0.01083,3.29779 -0.83299,6.02265 -2.53146,8.17454c-0.86624,1.09835 -2.31308,2.26585 -4.34056,3.5025c3.07246,1.32751 4.89413,3.3418 5.46506,6.04288c0.18394,0.87058 0.31997,1.94724 0.40807,3.22999l0.44465,8.92704c0.02984,1.00751 0.09809,1.76348 0.20474,2.26792c0.22235,1.05221 0.96091,1.94512 2.21574,2.67874l0.02462,1.09832l-8.17247,0c-0.22039,-0.82444 -0.38976,-1.62582 -0.50811,-2.40416c-0.37812,-2.65498 -0.58636,-5.69982 -0.62474,-9.13454c-0.01138,-1.78582 -0.11864,-3.15941 -0.32178,-4.12082c-0.25166,-1.19053 -0.79976,-2.26649 -1.6443,-3.2279c-1.32708,-1.51191 -3.61644,-2.2679 -6.86805,-2.26792l-16.13951,0l0.0066,21.15534l-6.66122,0l0.08505,-49.31354l22.80283,0c9.15827,0.00006 14.4341,3.29642 15.82752,9.88912c0.23237,1.09977 0.34148,2.26725 0.32732,3.50249l0,0zm-6.83601,0.48209c-0.00932,-0.91664 -0.09134,-1.74108 -0.24606,-2.47334c-0.80334,-3.80077 -3.67761,-5.70118 -8.62283,-5.70122l-16.62159,0l-0.02946,16.75993l15.45411,0c6.68494,0.00003 10.04021,-2.86176 10.06583,-8.58537l0,0zm56.47025,-0.48209c0.01083,3.29779 -0.83299,6.02265 -2.53148,8.17454c-0.86623,1.09835 -2.31308,2.26585 -4.34055,3.5025c3.07245,1.32751 4.89414,3.3418 5.46506,6.04288c0.18394,0.87058 0.31997,1.94724 0.40807,3.22999l0.44465,8.92704c0.02984,1.00751 0.09808,1.76348 0.20474,2.26792c0.22235,1.05221 0.96092,1.94512 2.21573,2.67874l0.02462,1.09832l-8.17246,0c-0.22039,-0.82444 -0.38977,-1.62582 -0.50811,-2.40416c-0.37811,-2.65498 -0.58635,-5.69982 -0.62475,-9.13454c-0.01136,-1.78582 -0.11862,-3.15941 -0.32177,-4.12082c-0.25166,-1.19053 -0.79975,-2.26649 -1.64428,-3.2279c-1.3271,-1.51191 -3.61644,-2.2679 -6.86807,-2.26792l-16.13951,0l0.00661,21.15534l-6.66122,0l0.08506,-49.31354l22.80281,0c9.15827,0.00006 14.4341,3.29642 15.82751,9.88912c0.23239,1.09977 0.34149,2.26725 0.32734,3.50249l0,0zm-6.83601,0.48209c-0.00932,-0.91664 -0.09136,-1.74108 -0.24606,-2.47334c-0.80334,-3.80077 -3.67761,-5.70118 -8.62284,-5.70122l-16.6216,0l-0.02945,16.75993l15.4541,0c6.68494,0.00003 10.04023,-2.86176 10.06585,-8.58537l0,0zm53.29617,-13.8737l-0.05537,5.90664l-29.26071,0l0.03483,15.11036l26.99281,0l-0.05747,5.90664l-26.99071,0l-0.02085,16.48326l29.74072,0l0.0117,5.90664l-36.40194,0l0.08715,-49.31354l35.91984,0zm13.24957,0l0,49.31354l-6.66122,0l0,-49.31354l6.66122,0zm54.14845,14.83368l-6.4559,0c-0.85789,-2.97494 -1.95416,-5.12688 -3.28855,-6.45581c-2.50109,-2.51799 -5.97207,-3.77701 -10.41283,-3.77706c-5.08361,0.00005 -9.0656,1.7974 -11.94596,5.39207c-2.88041,3.59474 -4.32147,8.52847 -4.3232,14.80118c-0.01699,2.51807 0.19233,4.80764 0.62795,6.86873c1.83873,8.69997 6.92502,13.04995 15.25888,13.04995c4.76078,0 8.4811,-1.78583 11.161,-5.35749c1.3256,-1.74109 2.44394,-4.46594 3.35522,-8.17455l6.45579,0c-0.12261,0.50446 -0.27026,1.21432 -0.44286,2.12957c-1.2727,4.80833 -2.90863,8.33387 -4.90792,10.57662c-4.04284,4.48832 -9.45209,6.73248 -16.22785,6.73248c-5.58667,0 -10.25268,-1.60278 -13.99807,-4.80832c-3.7454,-3.20553 -6.21806,-7.64704 -7.41798,-13.32452c-0.513,-2.4272 -0.76215,-5.01441 -0.74751,-7.76164c0.01102,-7.96771 2.09591,-14.2981 6.25473,-18.99117c4.15879,-4.69299 9.78677,-7.03949 16.88394,-7.03955c5.58663,0.00006 10.1291,1.39671 13.62743,4.18999c3.49825,2.79335 5.67942,6.77652 6.54369,11.94952l0,0zm49.5715,-14.83368l-0.08712,49.31354l-6.66125,0l0.01267,-23.00823l-25.75614,0l-0.01268,23.00823l-6.66324,0l0.08711,-49.31354l6.66126,0l-0.08416,20.39866l25.75614,0l0.08416,-20.39866l6.66325,0z"/>
    <path stroke-miterlimit="4" stroke-width="3.90986" stroke="#201f1d" fill-rule="evenodd" fill="#201f1d" id="svg_3" d="m718.2535,354.99596l-642.60419,-0.52857"/>
   </g>
  </g>
 </g>
</svg>